<mxfile host="app.diagrams.net" modified="2022-10-11T21:07:24.273Z" agent="5.0 (Windows NT 10.0; Win64; x64) AppleWebKit/537.36 (KHTML, like Gecko) Chrome/106.0.0.0 Safari/537.36" etag="xeE1VkT7wEejom7VrsMd" version="20.4.0" type="github">
  <diagram id="6a731a19-8d31-9384-78a2-239565b7b9f0" name="Page-1">
    <mxGraphModel dx="1656" dy="1048" grid="1" gridSize="10" guides="1" tooltips="1" connect="1" arrows="1" fold="1" page="1" pageScale="1" pageWidth="1169" pageHeight="827" background="none" math="0" shadow="0">
      <root>
        <mxCell id="0" />
        <mxCell id="1" parent="0" />
        <mxCell id="ueL2jgsVfrRlY1h6P5Gp-1543" value="" style="edgeStyle=orthogonalEdgeStyle;rounded=0;orthogonalLoop=1;jettySize=auto;html=1;" edge="1" parent="1" source="1515" target="ueL2jgsVfrRlY1h6P5Gp-1542">
          <mxGeometry relative="1" as="geometry" />
        </mxCell>
        <mxCell id="ueL2jgsVfrRlY1h6P5Gp-1551" value="" style="edgeStyle=orthogonalEdgeStyle;rounded=0;orthogonalLoop=1;jettySize=auto;html=1;fontColor=#000000;" edge="1" parent="1" source="1515" target="ueL2jgsVfrRlY1h6P5Gp-1550">
          <mxGeometry relative="1" as="geometry" />
        </mxCell>
        <mxCell id="1515" value="AgenceOnline&lt;br&gt;" style="ellipse;whiteSpace=wrap;html=1;shadow=0;fontFamily=Helvetica;fontSize=30;fontColor=#2F5B7C;align=center;strokeColor=#2F5B7C;strokeWidth=6;fillColor=#FFFFFF;fontStyle=1;gradientColor=none;" parent="1" vertex="1">
          <mxGeometry x="1040" y="680" width="270" height="270" as="geometry" />
        </mxCell>
        <mxCell id="ueL2jgsVfrRlY1h6P5Gp-1542" value="Components" style="shape=step;perimeter=stepPerimeter;whiteSpace=wrap;html=1;fixedSize=1;fontSize=30;fillColor=#FFFFFF;strokeColor=#2F5B7C;fontColor=#2F5B7C;shadow=0;strokeWidth=6;fontStyle=1;gradientColor=none;" vertex="1" parent="1">
          <mxGeometry x="1519" y="775" width="234" height="80" as="geometry" />
        </mxCell>
        <mxCell id="ueL2jgsVfrRlY1h6P5Gp-1550" value="User View" style="shape=step;perimeter=stepPerimeter;whiteSpace=wrap;html=1;fixedSize=1;fontSize=30;fillColor=#FFFFFF;strokeColor=#2F5B7C;fontColor=#2F5B7C;shadow=0;strokeWidth=6;fontStyle=1;gradientColor=none;size=20;rotation=0;direction=west;" vertex="1" parent="1">
          <mxGeometry x="560" y="775" width="275" height="80" as="geometry" />
        </mxCell>
      </root>
    </mxGraphModel>
  </diagram>
</mxfile>
